# xmcd
#
# Track frame offsets:
#	150
#	20382
#	39636
#	62063
#	84420
#	102456
#	121375
#	139828
#	163461
#	183463
#
# Disc length: 2617 seconds
#
# Revision: 0
# Processed by: cddbd v1.5.2PL0 Copyright (c) Steve Scherf et al.
# Submitted via: EZCDAudioConverter 8.0.2.1
#
DISCID=8b0a370a
DTITLE=Lâm Nhật Tiến - st. Trúc Hồ. The Best Of. Giữa Hai Mùa Mưa Nắng [CD1)
DYEAR=2002
DGENRE=World Pop
TTITLE0=Giữa Hai Mùa Mưa Nắng
TTITLE1=Trái tim về đâu
TTITLE2=Nếu không có em
TTITLE3=Em đã quên một dòng sông
TTITLE4=Đỉnh gió hú
TTITLE5=Dẫu có biết trước
TTITLE6=Đã qua thời mong chờ
TTITLE7=Về đâu hỡi em
TTITLE8=Làm thư tình em đọc
TTITLE9=Sẽ hơn bao giờ hết
EXTD=
EXTT0=
EXTT1=
EXTT2=
EXTT3=
EXTT4=
EXTT5=
EXTT6=
EXTT7=
EXTT8=
EXTT9=
PLAYORDER=
